<?xml version="1.0" encoding="utf-8"?>
<!-- Generator: Adobe Illustrator 23.0.1, SVG Export Plug-In . SVG Version: 6.00 Build 0)  -->
<svg version="1.1" xmlns="http://www.w3.org/2000/svg" xmlns:xlink="http://www.w3.org/1999/xlink" x="0px" y="0px"
	 viewBox="0 0 1366 768" style="enable-background:new 0 0 1366 768;" xml:space="preserve">
<style type="text/css">
	.st0{fill:#4F0101;}
	.st1{fill:#4566FF;}
	.st2{fill:#020000;stroke:#000000;stroke-miterlimit:10;}
	.st3{fill:#A39999;stroke:#000000;stroke-miterlimit:10;}
	.st4{fill:#133B1D;stroke:#000000;stroke-miterlimit:10;}
	.st5{fill-rule:evenodd;clip-rule:evenodd;fill:#C77B32;}
	.st6{fill-rule:evenodd;clip-rule:evenodd;fill:#E7AD47;}
	.st7{fill-rule:evenodd;clip-rule:evenodd;fill:#E19C30;}
</style>
<g id="Stativ">
	<g>
		<rect x="390.5" y="358.5" class="st0" width="29" height="436"/>
		<path d="M419,359v435h-28V359H419 M420,358h-30v437h30V358L420,358z"/>
	</g>
</g>
<g id="Vann">
	<g>
		<rect x="-40" y="676" class="st1" width="1476" height="219"/>
	</g>
</g>
<g id="Bolger">
	<ellipse class="st1" cx="21" cy="699.5" rx="124" ry="96.5"/>
	<circle class="st1" cx="179.5" cy="636.5" r="7.5"/>
	<ellipse class="st1" cx="260" cy="682.5" rx="124" ry="96.5"/>
	<ellipse class="st1" cx="479" cy="725.5" rx="124" ry="96.5"/>
	<ellipse class="st1" cx="698" cy="688.5" rx="124" ry="96.5"/>
	<ellipse class="st1" cx="876" cy="676.5" rx="124" ry="96.5"/>
	<ellipse class="st1" cx="1105" cy="666.5" rx="124" ry="96.5"/>
	<ellipse class="st1" cx="1323" cy="688.5" rx="124" ry="96.5"/>
</g>
<g id="Blader">
	<path class="st2" d="M674.5,330c0,0.5-0.19,1-0.56,1.5H365.06c-0.37-0.5-0.56-1-0.56-1.5c0-9.66,69.4-17.5,155-17.5
		S674.5,320.34,674.5,330z"/>
	<g>
		<path class="st3" d="M673.94,331.5c-6.73,8.96-73.31,16-154.44,16s-147.71-7.04-154.44-16H673.94z"/>
	</g>
	<path class="st2" d="M401,58.5c0.5,0,1,0.19,1.5,0.56v308.88c-0.5,0.37-1,0.56-1.5,0.56c-9.66,0-17.5-69.4-17.5-155
		S391.34,58.5,401,58.5z"/>
	<g>
		<path class="st3" d="M402.5,59.06c8.96,6.73,16,73.31,16,154.44s-7.04,147.71-16,154.44V59.06z"/>
	</g>
	<path class="st2" d="M129.5,332c0-0.5,0.19-1,0.56-1.5h308.88c0.37,0.5,0.56,1,0.56,1.5c0,9.66-69.4,17.5-155,17.5
		S129.5,341.66,129.5,332z"/>
	<g>
		<path class="st3" d="M130.06,330.5c6.73-8.96,73.31-16,154.44-16s147.71,7.04,154.44,16H130.06z"/>
	</g>
	<path class="st2" d="M403,603.5c-0.5,0-1-0.19-1.5-0.56V294.06c0.5-0.37,1-0.56,1.5-0.56c9.66,0,17.5,69.4,17.5,155
		S412.66,603.5,403,603.5z"/>
	<g>
		<path class="st3" d="M401.5,602.94c-8.96-6.73-16-73.31-16-154.44s7.04-147.71,16-154.44V602.94z"/>
	</g>
	<circle class="st2" cx="400" cy="331" r="39.5"/>
</g>
<g id="Layer_5">
	<ellipse class="st4" cx="1336.5" cy="881.5" rx="598" ry="361"/>
</g>
<g id="Tre">
	<g>
		<path class="st5" d="M1208.61,270.05L1208.61,270.05c2.52,0,4.59,2.51,4.59,5.55v258.25c0,3.02-2.07,5.53-4.59,5.53l0,0
			c-2.52,0-4.58-2.51-4.58-5.53V275.6C1204.03,272.56,1206.09,270.05,1208.61,270.05z"/>
		<path class="st6" d="M1209.31,194c21.14,22.94,19.98,45.91,0,69.2C1188.68,239.33,1189.28,218.04,1209.31,194z"/>
		<path class="st6" d="M1247.88,237.19c9.72,32.29-0.23,51.93-26.91,61.06C1212.05,265.44,1220.85,246.99,1247.88,237.19z"/>
		<path class="st7" d="M1260.31,296.89c-0.11,34.37-15.05,48.6-42.7,46.01C1218.62,308.36,1232.16,294.76,1260.31,296.89z"/>
		<path class="st7" d="M1265,346.26c-3.9,34.04-20.29,45.73-47.39,38.69C1222.42,350.89,1237.33,339.59,1265,346.26z"/>
		<path class="st7" d="M1265,391.81c-3.9,34.04-20.29,45.73-47.39,38.7C1222.42,396.46,1237.33,385.14,1265,391.81z"/>
		<path class="st7" d="M1265,437.36c-3.9,34.06-20.29,45.77-47.39,38.71C1222.42,442.02,1237.33,430.71,1265,437.36z"/>
		<path class="st6" d="M1169.14,237.19c-9.73,32.29,0.21,51.93,26.9,61.06C1204.97,265.44,1196.16,246.99,1169.14,237.19z"/>
		<path class="st7" d="M1156.71,296.89c0.1,34.37,15.04,48.6,42.7,46.01C1198.4,308.36,1184.85,294.76,1156.71,296.89z"/>
		<path class="st7" d="M1152.02,346.26c3.89,34.04,20.27,45.73,47.39,38.69C1194.6,350.89,1179.68,339.59,1152.02,346.26z"/>
		<path class="st7" d="M1152.02,391.81c3.89,34.04,20.27,45.73,47.39,38.7C1194.6,396.44,1179.68,385.14,1152.02,391.81z"/>
		<path class="st7" d="M1152.02,437.36c3.89,34.06,20.27,45.75,47.39,38.71C1194.6,442.02,1179.68,430.71,1152.02,437.36z"/>
	</g>
</g>
<g id="Lov">
	<path class="st7" d="M1042.41,489.9c-1.01-34.54-14.56-48.14-42.7-46.01C999.81,478.26,1014.75,492.49,1042.41,489.9"/>
	<path class="st7" d="M1147.41,592.9c-1.01-34.54-14.56-48.14-42.7-46.01C1104.81,581.26,1119.75,595.49,1147.41,592.9"/>
	<path class="st7" d="M654.41,450.9c-1.01-34.54-14.56-48.14-42.7-46.01C611.81,439.26,626.75,453.49,654.41,450.9"/>
	<path class="st7" d="M887.41,193.9c-1.01-34.54-14.56-48.14-42.7-46.01C844.81,182.26,859.75,196.49,887.41,193.9"/>
	<path class="st7" d="M774.41,545.9c-1.01-34.54-14.56-48.14-42.7-46.01C731.81,534.26,746.75,548.49,774.41,545.9"/>
	<path class="st7" d="M208.41,545.9c-1.01-34.54-14.56-48.14-42.7-46.01C165.81,534.26,180.75,548.49,208.41,545.9"/>
	<path class="st7" d="M591.41,602.9c-1.01-34.54-14.56-48.14-42.7-46.01C548.81,591.26,563.75,605.49,591.41,602.9"/>
	<path class="st7" d="M236.41,212.9c-1.01-34.54-14.56-48.14-42.7-46.01C193.81,201.26,208.75,215.49,236.41,212.9"/>
	<path class="st7" d="M574.41,212.9c-1.01-34.54-14.56-48.14-42.7-46.01C531.81,201.26,546.75,215.49,574.41,212.9"/>
	<path class="st7" d="M855.41,427.9c-1.01-34.54-14.56-48.14-42.7-46.01C812.81,416.26,827.75,430.49,855.41,427.9"/>
	<path class="st7" d="M719.41,380.9c-1.01-34.54-14.56-48.14-42.7-46.01C676.81,369.26,691.75,383.49,719.41,380.9"/>
</g>
</svg>
